<?xml version="1.0" encoding="UTF-8" standalone="no"?><!DOCTYPE svg PUBLIC "-//W3C//DTD SVG 1.1//EN" "http://www.w3.org/Graphics/SVG/1.1/DTD/svg11.dtd"><svg width="100%" height="100%" viewBox="0 0 6875 5000" version="1.1" xmlns="http://www.w3.org/2000/svg" xmlns:xlink="http://www.w3.org/1999/xlink" xml:space="preserve" xmlns:serif="http://www.serif.com/" style="fill-rule:evenodd;clip-rule:evenodd;stroke-linejoin:round;stroke-miterlimit:2;"><rect id="Artboard1" x="0" y="0" width="6875" height="5000" style="fill:none;"/><clipPath id="_clip1"><rect x="0" y="0" width="6875" height="5000"/></clipPath><g clip-path="url(#_clip1)"><path id="Archer-No-Bow" serif:id="Archer No Bow" d="M2391.17,1355.78c-13.976,-10.353 -5.138,-32.465 12.039,-30.325l806.675,101.703c129.468,16.318 214.384,143.724 179.562,269.49l-26.937,90.054c-1.624,5.528 -6.699,9.229 -12.414,9.229l-4.435,-0c-31.746,-0 -56.465,27.53 -53.217,59.088l17.63,168.256c0.983,9.619 -4.95,18.738 -14.179,21.659l-73.455,23.235c-6.059,1.952 -10.868,6.559 -13.086,12.555l-55.559,153.156c-8.854,24.407 -32.012,40.662 -58.042,40.662l-280.749,0c-15.038,0 -23.299,-17.505 -13.664,-29.076l354.344,-427.283c7.355,-8.839 1.031,-22.19 -10.478,-22.112l-45.284,0.312c-5.793,0.079 -11.462,1.64 -16.459,4.498l-516.088,297.02c-9.697,5.59 -21.924,4.357 -30.325,-3.123l-285.309,-252.907c-11.118,-9.822 -12.883,-26.546 -4.091,-38.523l148.596,-202.469c15.162,-20.691 39.429,-32.668 65.069,-32.09l123.299,2.811c31.809,0.718 45.675,-39.96 20.035,-58.823l-213.478,-156.997Zm1127.43,1021.43c363.651,-4.528 2117.35,0 2117.35,0c32.932,0 34.681,48.798 1.827,51.141l-2229.45,161.041c-20.566,1.499 -34.354,-20.753 -23.876,-38.523l86.525,-146.457c9.962,-16.849 29.341,-26.967 47.627,-27.202Zm2684.57,24.222c-8.322,-6.55 -11.615,-17.634 -8.217,-27.665c3.397,-10.032 12.747,-16.834 23.337,-16.978c144.549,-1.975 474.736,-6.486 643.83,-8.796c6.338,-0.085 11.737,4.588 12.561,10.873c0.825,6.285 -3.185,12.192 -9.331,13.745c-165.036,47.532 -385.662,128.654 -460.783,156.714c-16.356,6.124 -34.722,3.269 -48.447,-7.533c-34.939,-27.484 -103.918,-81.772 -152.95,-120.36Zm-3016.58,96.61c-11.649,27.514 -33.12,51.141 -64.226,70.988c42.427,7.089 58.043,29.216 32.995,88.929c-24.406,58.308 -71.174,101.047 -140.351,128.312c-47.564,18.676 -114.117,31.949 -199.798,39.819l-339.573,31.434l-694.431,76.765l-0,-0.062l-710.5,78.405c-33.776,3.778 -67.412,-8.074 -91.413,-32.074l-191.491,-191.492c-43.661,-43.661 -43.723,-114.445 -0.063,-158.168l220.505,-220.833c21.018,-21.003 49.454,-32.855 79.186,-32.855l1107.46,-0.453l0.125,0.328l476.988,-0.062l349.706,-0c63.383,-0 107.95,5.59 133.652,16.646c42.74,17.895 53.155,52.639 31.231,104.373Zm-158.761,11.712c10.087,-23.814 5.73,-38.773 -13.008,-44.957c-7.23,-2.42 -27.327,-3.592 -60.385,-3.592l-99.813,0l-30.31,87.072l128.171,-0c20.238,-0 31.294,-1.187 40.085,-3.592c15.412,-4.294 27.186,-15.927 35.26,-34.931Zm-323.629,-29.873c3.576,-8.775 -3.061,-18.41 -12.555,-18.082l-261.683,7.48l147.956,264.555c5.325,9.635 19.519,8.776 23.611,-1.499l102.671,-252.454Zm286.027,192.788c11.961,-28.498 -9.369,-45.082 -41.834,-44.379c-7.886,-1.624 -33.51,-0.453 -76.984,3.592l-83.339,5.012l-44.707,106.763l113.29,-10.478c45.925,-4.232 78.077,-10.728 96.487,-19.52c16.724,-8.198 29.076,-21.861 37.087,-40.99Zm2806.81,204.905l-153.921,-12.508c-13.866,-1.561 -27.983,-0.718 -41.521,2.53l-2695.18,649.288c-34.151,8.198 -61.353,-28.639 -43.52,-58.886l392.336,-664.56c7.996,-13.538 21.987,-22.517 37.665,-24.141l2362.05,-245.427c3.061,-0.328 6.059,-0.906 8.979,-1.765l151.954,-31.137l217.35,-44.519l27.062,-5.544c47.377,-13.975 94.863,21.55 94.863,70.926l0,314.712c0,44.113 -38.383,78.405 -82.231,73.47l-62.758,-5.106l-213.134,-17.333Z" style="fill:#1d51a4;"/><path id="Bow-Bottom" serif:id="Bow Bottom" d="M5797.04,2877.57l213.134,17.333c-83.323,683.236 -370.25,1344.7 -894.692,1869.12c-82.512,82.574 -168.584,159.417 -257.467,230.92c-9.104,7.292 -22.252,6.637 -30.575,-1.561c-0.515,-0.531 -1.046,-1.047 -1.624,-1.562c-9.307,-9.104 -9.182,-24.079 0.328,-33.058c64.211,-61.165 126.672,-125.891 186.916,-194.739c463.59,-528.846 713.617,-1197.06 783.98,-1886.45Z" style="fill:#1d51a4;"/><path id="Bow-Top" serif:id="Bow Top" d="M6033.23,2446.45l-217.35,44.519c-3.358,-812.125 -259.678,-1623.06 -802.828,-2242.71c-64.663,-73.783 -131.747,-143.209 -200.907,-208.2c-9.572,-8.917 -9.76,-23.954 -0.391,-33.121c0.063,-0.14 0.188,-0.203 0.328,-0.327c8.261,-8.136 21.331,-8.854 30.45,-1.624c94.395,75.016 185.62,155.95 272.942,243.272c608.313,608.313 902.937,1401.01 917.756,2198.19Z" style="fill:#1d51a4;"/><path id="G" d="M4488.77,4789.57l272.204,-0l-38.473,206.812l-431.843,0c-24.324,0 -46.4,-4.665 -66.094,-13.961c-19.738,-9.296 -36.144,-21.96 -49.217,-37.993c-13.028,-16.068 -22.253,-34.811 -27.55,-56.282c-5.297,-21.445 -5.661,-44.329 -1.146,-68.653c4.514,-24.369 13.446,-47.253 26.732,-68.698c13.26,-21.471 29.443,-40.214 48.479,-56.282c19.028,-16.032 40.135,-28.696 63.321,-37.992c23.178,-9.296 46.951,-13.962 71.275,-13.962l431.364,0c-9.225,7.776 -17.997,15.295 -26.253,22.556c-8.256,7.296 -16.743,13.695 -25.364,19.294c-8.629,5.554 -17.774,10.033 -27.372,13.401c-9.554,3.404 -20.441,5.075 -32.616,5.075l-277.989,-1.52c-12.14,0 -24.547,3.04 -37.175,9.109c-12.629,6.07 -24.404,14.406 -35.327,25.036c-10.922,10.629 -20.404,23.026 -28.438,37.174c-8.034,14.184 -13.553,29.328 -16.593,45.511c-2.924,15.846 -3.181,30.848 -0.773,45.031c2.444,14.175 7.145,26.733 14.033,37.691c6.923,10.958 15.926,19.623 27.07,26.03c11.145,6.408 23.995,9.589 38.544,9.589l240.254,0l16.406,-88.16l-138.382,0l10.923,-58.806Z" style="fill:#1d51a4;"/><path id="N" d="M3717.55,4642.08c17.552,0 32.695,2.115 45.439,6.337c12.736,4.221 24.173,9.953 34.287,17.214c10.14,7.261 19.658,15.632 28.545,25.106c8.888,9.483 18.264,19.445 28.146,29.888l160.635,171.85l46.586,-250.395l65.392,0l-65.916,354.303l-157.631,0l-251.577,-282.317l-52.55,282.317l-65.391,0l65.907,-354.303l118.128,0Z" style="fill:#1d51a4;"/><path id="I" d="M3333.66,4996.39l66.032,-354.818l133.822,-0l-66.023,354.818l-133.831,0Z" style="fill:#1d51a4;"/><path id="M" d="M2772.03,4641.57c19.259,-0 35.957,3.883 50.026,11.66c14.113,7.776 25.257,18.778 33.442,32.962l113.791,178.409l143.198,-175.894c11.847,-14.513 25.32,-25.773 40.508,-33.7c15.143,-7.918 31.922,-12.255 50.283,-12.922l130.383,-0.515l-66.022,354.818l-145.971,0l54.318,-291.977l-237.287,291.977l-76.056,0l-164.225,-283.357l-52.505,282.353l-65.401,0l65.916,-354.33l125.602,0.516Z" style="fill:#1d51a4;"/><path id="A" d="M2383.03,4641.57l164.634,354.818l-156.111,0l-38.704,-83.61l-268.391,0l-67.906,83.086l-105.535,0.524l296.643,-354.818l175.37,-0Zm-250.537,212.402l192.771,0l-69.8,-150.566l-122.971,150.566Z" style="fill:#1d51a4;"/><path id="G1" serif:id="G" d="M1654.57,4789.57l272.168,-0l-38.472,206.812l-431.844,0c-24.333,0 -46.364,-4.665 -66.102,-13.961c-19.694,-9.296 -36.1,-21.96 -49.173,-37.993c-13.073,-16.068 -22.253,-34.811 -27.55,-56.282c-5.296,-21.445 -5.661,-44.329 -1.146,-68.653c4.515,-24.369 13.437,-47.253 26.697,-68.698c13.295,-21.471 29.478,-40.214 48.506,-56.282c19.036,-16.032 40.143,-28.696 63.321,-37.992c23.186,-9.296 46.959,-13.962 71.283,-13.962l431.364,0c-9.261,7.776 -17.997,15.295 -26.253,22.556c-8.3,7.296 -16.743,13.695 -25.408,19.294c-8.63,5.554 -17.739,10.033 -27.328,13.401c-9.589,3.404 -20.44,5.075 -32.625,5.075l-277.98,-1.52c-12.14,0 -24.546,3.04 -37.175,9.109c-12.629,6.07 -24.404,14.406 -35.326,25.036c-10.923,10.629 -20.405,23.026 -28.439,37.174c-8.034,14.184 -13.589,29.328 -16.593,45.511c-2.959,15.846 -3.217,30.848 -0.773,45.031c2.444,14.175 7.11,26.733 14.033,37.691c6.888,10.958 15.926,19.623 27.07,26.03c11.145,6.408 23.996,9.589 38.508,9.589l240.29,0l16.397,-88.16l-138.372,0l10.922,-58.806Z" style="fill:#1d51a4;"/><path id="Y" d="M6289.95,3873.68l77.82,1.585c-71.939,61.103 -146.138,122.058 -222.511,182.874c-76.408,60.851 -150.573,121.814 -222.503,182.917l-26.462,22.157l-31.47,169.127l-210.375,-0l28.108,-151.188l-326.629,-407.472l267.623,0.789l219.22,278.121l264.99,-212.004c56.121,-44.601 116.825,-66.906 182.189,-66.906Z" style="fill:#1d51a4;"/><path id="R" d="M5091.18,4206.8l232.325,224.711l-196.845,0c-17.004,0 -32.812,-0.797 -47.356,-2.391c-14.578,-1.585 -28.152,-4.469 -40.599,-8.731c-12.491,-4.262 -24.514,-9.849 -35.948,-16.744c-11.485,-6.895 -22.815,-15.955 -34.007,-27.103l-170.998,-168.954l-126.717,0l-41.656,223.923l-210.41,0l103.798,-557.837l726.816,0c36.675,0 65.65,8.221 87.054,24.678c21.369,16.502 35.878,37.074 43.492,61.796c7.614,24.687 8.774,51.392 3.43,80.089c-5.344,28.689 -16.423,55.359 -33.236,80.089c-16.822,24.679 -38.988,45.294 -66.447,61.752c-27.537,16.493 -59.63,24.722 -96.261,24.722l-96.435,-0Zm-0.685,-94.85c20.278,-0.545 38.469,-7.692 54.606,-21.508c16.094,-13.824 26.056,-30.828 29.806,-51.002c3.647,-19.671 -0.251,-36.528 -11.694,-50.638c-11.477,-14.076 -27.276,-21.11 -47.494,-21.11l-400.04,0l-26.852,144.328c161.547,0.511 263.075,0.719 281.188,0.719l119.536,-0l0.944,-0.789Z" style="fill:#1d51a4;"/><path id="E" d="M4335.67,4366.32c10.36,8.706 19.776,18.702 28.299,30.032c8.515,11.33 17.758,23.067 27.719,35.159l-883.028,0l103.798,-557.837l883.027,0c-14.509,12.196 -28.264,24.029 -41.257,35.437c-13.028,11.442 -26.307,21.508 -39.915,30.282c-13.565,8.766 -27.935,15.843 -42.981,21.11c-15.055,5.344 -32.162,7.978 -51.288,7.978l-514.674,-0.789l-25.657,137.866l556.278,-0l-17.497,94.061l-556.287,-0l-25.631,137.865l515.618,0c19.126,0 35.22,2.634 48.36,7.909c13.063,5.266 24.791,12.231 35.116,20.927Z" style="fill:#1d51a4;"/><path id="V" d="M3592.94,3875.26l-486.331,557.872l-275.749,-0l-271.59,-557.872l245.457,0l226.045,459.809l298.556,-353.846l31.685,-37.42c19.568,-22.348 41.829,-39.343 66.88,-51.037c25.016,-11.659 51.072,-17.506 78.141,-17.506l86.906,0Z" style="fill:#1d51a4;"/><path id="A1" serif:id="A" d="M2495.3,3875.26l258.814,557.872l-245.466,-0l-60.816,-131.516l-422.016,-0l-106.768,130.719l-165.913,0.797l466.417,-557.872l275.748,0Zm-393.951,333.923l303.103,-0l-109.757,-236.691l-193.346,236.691Z" style="fill:#1d51a4;"/><path id="R1" serif:id="R" d="M1583.23,4208.39l232.368,224.711l-196.854,0c-17.064,0 -32.803,-0.797 -47.381,-2.382c-14.587,-1.594 -28.117,-4.513 -40.608,-8.775c-12.491,-4.218 -24.47,-9.814 -35.948,-16.709c-11.477,-6.929 -22.807,-15.955 -33.998,-27.103l-171.007,-168.945l-126.717,-0l-41.647,223.914l-210.419,0l103.806,-557.837l726.816,0c36.667,0 65.685,8.229 87.054,24.687c21.369,16.458 35.878,37.065 43.492,61.752c7.614,24.722 8.766,51.427 3.431,80.09c-5.31,28.723 -16.424,55.402 -33.211,80.124c-16.848,24.687 -39.014,45.294 -66.481,61.751c-27.537,16.493 -59.586,24.722 -96.288,24.722l-96.408,0Zm-0.685,-94.85c20.287,-0.537 38.512,-7.683 54.615,-21.507c16.128,-13.825 26.055,-30.82 29.806,-51.003c3.646,-19.663 -0.251,-36.519 -11.694,-50.638c-11.477,-14.067 -27.286,-21.11 -47.459,-21.11l-400.084,0l-26.852,144.328c161.547,0.476 263.075,0.727 281.196,0.727l119.537,0l0.935,-0.797Z" style="fill:#1d51a4;"/><path id="B" d="M874.106,4202.4c13.573,19.923 20.754,41.327 21.551,64.177c0.788,22.842 -5.448,45.796 -18.805,68.933c-13.322,23.101 -34.579,44.505 -63.736,64.134c-15.054,9.563 -31.478,17.142 -49.235,22.738c-17.792,5.561 -36.779,8.341 -56.953,8.341l-706.928,0l103.797,-557.837l706.894,0c20.217,0 38.156,2.781 53.852,8.333c15.704,5.596 29.269,13.175 40.781,22.738c21.872,19.637 35.159,41.041 39.889,64.134c4.721,23.136 2.451,46.091 -6.86,68.941c-9.278,22.877 -24.471,44.393 -45.476,64.567c-21.04,20.174 -46.308,36.918 -75.906,50.206c24.548,13.824 43.57,30.672 57.135,50.595Zm-173.423,-119.537c16.354,-13.53 26.315,-29.884 29.849,-49.01c3.578,-19.125 -0.286,-35.479 -11.581,-49.009c-11.295,-13.539 -26.783,-20.322 -46.42,-20.322l-375.388,0l-26.055,140.144l375.639,-1.481c19.637,-0 37.645,-6.783 53.956,-20.322Zm-25.804,213.737c6.21,-9.052 10.325,-18.944 12.308,-29.624c3.578,-19.239 -0.285,-35.662 -11.546,-49.305c-11.295,-13.608 -26.749,-20.425 -46.42,-20.425l-375.353,-0l-25.952,139.459l375.362,0c5.301,0 9.346,-0.26 12.127,-0.797c16.527,-3.213 28.905,-8.558 37.247,-16.025c8.584,-6.427 16.025,-14.188 22.227,-23.283Z" style="fill:#1d51a4;"/></g></svg>